<?xml version="1.0" standalone="no"?>
<!DOCTYPE svg PUBLIC "-//W3C//DTD SVG 20010904//EN"
 "http://www.w3.org/TR/2001/REC-SVG-20010904/DTD/svg10.dtd">
<svg version="1.0" xmlns="http://www.w3.org/2000/svg"
 width="162.000000pt" height="162.000000pt" viewBox="0 0 162.000000 162.000000"
 preserveAspectRatio="xMidYMid meet">
<metadata>
Created by potrace 1.14, written by Peter Selinger 2001-2017
</metadata>
<g transform="translate(0.000000,162.000000) scale(0.100000,-0.100000)"
fill="#000000" stroke="none">
<path d="M760 1533 c-54 -4 -170 -41 -170 -54 0 -5 -6 -9 -12 -9 -24 0 -134
-115 -160 -165 -23 -45 -44 -118 -40 -137 1 -5 -3 -8 -8 -8 -6 0 -10 -26 -9
-62 1 -35 1 -79 0 -98 l-1 -35 -38 42 c-40 46 -68 51 -86 17 -6 -10 -14 -22
-19 -25 -13 -9 -27 -72 -27 -119 1 -61 29 -118 87 -176 86 -85 85 -81 84 -269
0 -156 2 -169 25 -214 13 -27 41 -61 61 -77 l38 -29 315 -3 315 -3 45 25 c45
24 80 70 84 113 2 13 6 26 9 30 4 3 7 80 7 170 0 132 3 166 15 181 9 9 44 47
79 85 56 59 65 74 74 123 10 58 -1 146 -18 152 -6 2 -10 9 -10 16 0 15 -31 41
-49 41 -7 0 -31 -20 -52 -45 l-39 -45 -1 70 c-1 110 -19 207 -51 275 -22 46
-126 160 -147 160 -6 0 -11 4 -11 9 0 13 -91 50 -141 56 -75 10 -102 12 -149
8z m3 -256 c16 -8 29 -19 30 -23 3 -14 35 -6 67 17 39 29 89 33 139 11 22 -10
38 -22 34 -25 -3 -4 -2 -7 4 -7 21 0 37 -58 39 -141 1 -47 7 -95 13 -107 13
-24 8 -90 -9 -121 -6 -12 -27 -29 -48 -39 -32 -16 -62 -18 -227 -16 -104 1
-191 3 -192 4 -2 1 -6 3 -10 4 -66 14 -100 116 -63 186 7 14 14 60 15 105 1
44 5 89 10 100 9 21 47 55 74 67 24 10 92 2 124 -15z"/>
<path d="M613 1157 c-12 -27 -1 -62 24 -76 39 -20 89 53 58 85 -6 6 -24 11
-41 12 -23 0 -34 -5 -41 -21z"/>
<path d="M933 1168 c-27 -35 -19 -63 22 -85 35 -19 71 24 59 71 -4 16 -13 23
-38 24 -18 1 -38 -3 -43 -10z"/>
<path d="M771 1077 c-6 -6 -11 -7 -11 -1 0 5 -6 -3 -14 -18 -39 -74 31 -157
99 -116 53 30 61 74 25 125 -17 23 -79 30 -99 10z"/>
</g>
</svg>
